<?xml version="1.0" encoding="UTF-8"?> <svg xmlns="http://www.w3.org/2000/svg" id="Layer_1" viewBox="0 0 125.625 121.396377"><defs><style> .cls-1 { fill: #fff; } </style></defs><path class="cls-1" d="M64.645147,2.627428c-2.12908-.93421-4.616324,0-5.651837,2.051432l-16.611125,33.498563-36.995346,5.291375c-3.562765.523498-4.990695,4.897687-2.42274,7.422608l26.708359,26.170653-6.395527,36.823628c-.611895,3.557021,3.11474,6.27453,6.312284,4.602953l33.106239-17.319065,33.042348,17.453131c3.189701,1.675833,6.917905-1.025716,6.323009-4.580609l-6.231396-36.865124,26.815308-26.034458c2.590707-2.521729,1.163731-6.92039-2.413149-7.439633l-36.962574-5.458426L66.811019,4.691628c-.455875-.92357-1.222834-1.654552-2.165864-2.066328l-.000008.002128Z"></path></svg> 